<svg xmlns="http://www.w3.org/2000/svg" width="24" height="24" viewBox="0 0 24 24">
    <g fill="none" fill-rule="evenodd">
        <g>
            <g>
                <g>
                    <g>
                        <g transform="translate(-31 -523) translate(15 391) translate(16 127) translate(0 5) translate(2.4 3)">
                            <g stroke="#1E1E1E">
                                <path d="M0 6h19.2v10c0 1.105-.895 2-2 2H2c-1.105 0-2-.895-2-2V6h0z"/>
                                <path fill="#1E1E1E" d="M0 2.4h19.2V4c0 1.105-.895 2-2 2H2C.895 6 0 5.105 0 4V2.4h0z" transform="matrix(1 0 0 -1 0 8.4)"/>
                                <path d="M3.6 6L3.6 0 15.6 0 15.6 6" transform="matrix(1 0 0 -1 0 6)"/>
                            </g>
                            <circle cx="4.8" cy="10.2" r="1.2" fill="#1E1E1E"/>
                            <circle cx="4.8" cy="13.8" r="1.2" fill="#1E1E1E"/>
                            <circle cx="9.6" cy="10.2" r="1.2" fill="#1E1E1E"/>
                            <circle cx="9.6" cy="13.8" r="1.2" fill="#1E1E1E"/>
                            <circle cx="14.4" cy="10.2" r="1.2" fill="#1E1E1E"/>
                            <circle cx="14.4" cy="13.8" r="1.2" fill="#1E1E1E"/>
                        </g>
                    </g>
                </g>
            </g>
        </g>
    </g>
</svg>
