<svg xmlns="http://www.w3.org/2000/svg" width="30" height="11" viewBox="0 0 30 11">
    <g fill="none" fill-rule="evenodd">
        <g stroke="#FFF" stroke-width=".5">
            <g>
                <g>
                    <g>
                        <g>
                            <path d="M4.385 8.296l-2.441-.133C.949 8.11.17 7.286.17 6.29V2.374h1.196c1.382 0 3.475-.847 4.706-1.274 3.33-1.206 7.05-1.236 10.373-.103 1.415.482 3.754 2.254 5.234 2.462l3.205.243c.723.055 1.407.344 1.95.825.709.63.765 1.133.73 3.108-.008.481-.404.868-.885.864l-1.952-.018m-3.794.025H8.246M12.933 3.597L12.102.186M2.501 3.459L.171 3.459" transform="translate(-287 -293) translate(254 268) translate(4 6) translate(8 1) translate(22.5 19)"/>
                            <path d="M5.027 5.938l-.359-.216c-.736-.446-1.58-.68-2.44-.68H.171M21.68 3.46H10.51c-1.906 0-3.738-.737-5.113-2.055M27.255 5.041h-.926c-.844 0-1.636-.408-2.126-1.095l-.223-.313" transform="translate(-287 -293) translate(254 268) translate(4 6) translate(8 1) translate(22.5 19)"/>
                            <path d="M8.436 7.627c0 1.15-.933 2.083-2.083 2.083-1.15 0-2.083-.932-2.083-2.083 0-1.15.933-2.084 2.083-2.084 1.15 0 2.083.933 2.083 2.084z" transform="translate(-287 -293) translate(254 268) translate(4 6) translate(8 1) translate(22.5 19)"/>
                            <path d="M7.15 7.627c0 .44-.357.795-.797.795-.44 0-.797-.355-.797-.795 0-.44.357-.797.797-.797.44 0 .796.357.796.797zM24.904 7.627c0 1.15-.932 2.083-2.082 2.083-1.151 0-2.084-.932-2.084-2.083 0-1.15.933-2.084 2.084-2.084 1.15 0 2.082.933 2.082 2.084z" transform="translate(-287 -293) translate(254 268) translate(4 6) translate(8 1) translate(22.5 19)"/>
                            <path d="M23.617 7.627c0 .44-.356.795-.796.795-.439 0-.796-.355-.796-.795 0-.44.357-.797.796-.797.44 0 .796.357.796.797z" transform="translate(-287 -293) translate(254 268) translate(4 6) translate(8 1) translate(22.5 19)"/>
                        </g>
                    </g>
                </g>
            </g>
        </g>
    </g>
</svg>
